# xmcd
#
# Track frame offsets:
#	150
#	16727
#	37697
#	56063
#	72192
#	88087
#	106140
#	122296
#	139439
#	153983
#	169203
#	185345
#	201554
#	212224
#	230915
#
# Disc length: 3244 seconds
#
# Revision: 0
# Processed by: cddbd v1.4PL0 Copyright (c) Steve Scherf et al.
# Submitted via: MusicWizard 6.0.2
#
DISCID=d10caa0f
DTITLE=Bonny Tyler - Silhouette In Red
DYEAR=1900
DGENRE=Country
TTITLE0=Sally Comes Around
TTITLE1=Fire On My Soul
TTITLE2=Stay
TTITLE3=Send Me The Pillow
TTITLE4=From The Bottom Of My Lonely Heart
TTITLE5=Silhouette In Red
TTITLE6=I Climb Every Mountain
TTITLE7=Bad Dreams
TTITLE8=James Dean
TTITLE9=Clouds In My Coffee
TTITLE10=Years May Come
TTITLE11=Cryin' A Little
TTITLE12=You Are So Beauiful
TTITLE13=Before We Get Any Closer
TTITLE14=You Won't See Me Cry
EXTD=
EXTT0=
EXTT1=
EXTT2=
EXTT3=
EXTT4=
EXTT5=
EXTT6=
EXTT7=
EXTT8=
EXTT9=
EXTT10=
EXTT11=
EXTT12=
EXTT13=
EXTT14=
PLAYORDER=
